<?xml version="1.0" encoding="UTF-8" standalone="no"?>
<!DOCTYPE svg PUBLIC "-//W3C//DTD SVG 1.1//EN"
 "http://www.w3.org/Graphics/SVG/1.1/DTD/svg11.dtd">
<!-- Generated by graphviz version 2.38.0 (20140413.2041)
 -->
<!-- Title: controllers_diagram Pages: 1 -->
<svg width="477pt" height="375pt"
 viewBox="0.00 0.00 477.00 375.00" xmlns="http://www.w3.org/2000/svg" xmlns:xlink="http://www.w3.org/1999/xlink">
<g id="graph0" class="graph" transform="scale(1 1) rotate(0) translate(89 252)">
<title>controllers_diagram</title>
<polygon fill="none" stroke="none" points="-89,123 -89,-252 388,-252 388,123 -89,123"/>
<!-- _diagram_info -->
<g id="node1" class="node"><title>_diagram_info</title>
<text text-anchor="start" x="178" y="-233.6" font-family="Times,serif" font-size="13.00">Controllers diagram</text>
<text text-anchor="start" x="178" y="-219.6" font-family="Times,serif" font-size="13.00">Date: Nov 29 2017 &#45; 12:27</text>
<text text-anchor="start" x="178" y="-205.6" font-family="Times,serif" font-size="13.00">Migration version: 20171129152603</text>
<text text-anchor="start" x="178" y="-191.6" font-family="Times,serif" font-size="13.00">Generated by RailRoady 1.5.3</text>
<text text-anchor="start" x="178" y="-177.6" font-family="Times,serif" font-size="13.00">http://railroady.prestonlee.com</text>
</g>
<!-- ComentsController -->
<g id="node2" class="node"><title>ComentsController</title>
<path fill="none" stroke="black" d="M-56.5,118.5C-56.5,118.5 40.5,118.5 40.5,118.5 46.5,118.5 52.5,112.5 52.5,106.5 52.5,106.5 52.5,-82.5 52.5,-82.5 52.5,-88.5 46.5,-94.5 40.5,-94.5 40.5,-94.5 -56.5,-94.5 -56.5,-94.5 -62.5,-94.5 -68.5,-88.5 -68.5,-82.5 -68.5,-82.5 -68.5,106.5 -68.5,106.5 -68.5,112.5 -62.5,118.5 -56.5,118.5"/>
<text text-anchor="middle" x="-8" y="-79.3" font-family="Times,serif" font-size="14.00">ComentsController</text>
<polyline fill="none" stroke="black" points="-68.5,-71.5 52.5,-71.5 "/>
<text text-anchor="start" x="-60.5" y="-56.3" font-family="Times,serif" font-size="14.00">create</text>
<text text-anchor="start" x="-60.5" y="-41.3" font-family="Times,serif" font-size="14.00">destroy</text>
<text text-anchor="start" x="-60.5" y="-26.3" font-family="Times,serif" font-size="14.00">edit</text>
<text text-anchor="start" x="-60.5" y="-11.3" font-family="Times,serif" font-size="14.00">index</text>
<text text-anchor="start" x="-60.5" y="3.7" font-family="Times,serif" font-size="14.00">new</text>
<text text-anchor="start" x="-60.5" y="18.7" font-family="Times,serif" font-size="14.00">show</text>
<text text-anchor="start" x="-60.5" y="33.7" font-family="Times,serif" font-size="14.00">update</text>
<polyline fill="none" stroke="black" points="-68.5,41.5 52.5,41.5 "/>
<polyline fill="none" stroke="black" points="-68.5,65.5 52.5,65.5 "/>
<text text-anchor="start" x="-60.5" y="80.7" font-family="Times,serif" font-size="14.00">_layout</text>
<text text-anchor="start" x="-60.5" y="95.7" font-family="Times,serif" font-size="14.00">coment_params</text>
<text text-anchor="start" x="-60.5" y="110.7" font-family="Times,serif" font-size="14.00">set_coment</text>
</g>
<!-- PostsController -->
<g id="node3" class="node"><title>PostsController</title>
<path fill="none" stroke="black" d="M97.5,84.5C97.5,84.5 174.5,84.5 174.5,84.5 180.5,84.5 186.5,78.5 186.5,72.5 186.5,72.5 186.5,-116.5 186.5,-116.5 186.5,-122.5 180.5,-128.5 174.5,-128.5 174.5,-128.5 97.5,-128.5 97.5,-128.5 91.5,-128.5 85.5,-122.5 85.5,-116.5 85.5,-116.5 85.5,72.5 85.5,72.5 85.5,78.5 91.5,84.5 97.5,84.5"/>
<text text-anchor="middle" x="136" y="-113.3" font-family="Times,serif" font-size="14.00">PostsController</text>
<polyline fill="none" stroke="black" points="85.5,-105.5 186.5,-105.5 "/>
<text text-anchor="start" x="93.5" y="-90.3" font-family="Times,serif" font-size="14.00">create</text>
<text text-anchor="start" x="93.5" y="-75.3" font-family="Times,serif" font-size="14.00">destroy</text>
<text text-anchor="start" x="93.5" y="-60.3" font-family="Times,serif" font-size="14.00">edit</text>
<text text-anchor="start" x="93.5" y="-45.3" font-family="Times,serif" font-size="14.00">index</text>
<text text-anchor="start" x="93.5" y="-30.3" font-family="Times,serif" font-size="14.00">new</text>
<text text-anchor="start" x="93.5" y="-15.3" font-family="Times,serif" font-size="14.00">show</text>
<text text-anchor="start" x="93.5" y="-0.3" font-family="Times,serif" font-size="14.00">update</text>
<polyline fill="none" stroke="black" points="85.5,7.5 186.5,7.5 "/>
<polyline fill="none" stroke="black" points="85.5,31.5 186.5,31.5 "/>
<text text-anchor="start" x="93.5" y="46.7" font-family="Times,serif" font-size="14.00">_layout</text>
<text text-anchor="start" x="93.5" y="61.7" font-family="Times,serif" font-size="14.00">post_params</text>
<text text-anchor="start" x="93.5" y="76.7" font-family="Times,serif" font-size="14.00">set_post</text>
</g>
<!-- ApplicationController -->
<g id="node4" class="node"><title>ApplicationController</title>
<path fill="none" stroke="black" d="M-73,-137C-73,-137 39,-137 39,-137 45,-137 51,-143 51,-149 51,-149 51,-219 51,-219 51,-225 45,-231 39,-231 39,-231 -73,-231 -73,-231 -79,-231 -85,-225 -85,-219 -85,-219 -85,-149 -85,-149 -85,-143 -79,-137 -73,-137"/>
<text text-anchor="middle" x="-17" y="-215.8" font-family="Times,serif" font-size="14.00">ApplicationController</text>
<polyline fill="none" stroke="black" points="-85,-208 51,-208 "/>
<polyline fill="none" stroke="black" points="-85,-184 51,-184 "/>
<polyline fill="none" stroke="black" points="-85,-160 51,-160 "/>
<text text-anchor="start" x="-77" y="-144.8" font-family="Times,serif" font-size="14.00">_layout</text>
</g>
</g>
</svg>
