<?xml version="1.0" encoding="UTF-8" standalone="no"?>
<!DOCTYPE svg PUBLIC "-//W3C//DTD SVG 1.1//EN"
 "http://www.w3.org/Graphics/SVG/1.1/DTD/svg11.dtd">
<!-- Generated by graphviz version 2.38.0 (20140413.2041)
 -->
<!-- Title: models_diagram Pages: 1 -->
<svg width="726pt" height="551pt"
 viewBox="0.00 0.00 726.34 551.00" xmlns="http://www.w3.org/2000/svg" xmlns:xlink="http://www.w3.org/1999/xlink">
<g id="graph0" class="graph" transform="scale(1 1) rotate(0) translate(4 547)">
<title>models_diagram</title>
<polygon fill="none" stroke="none" points="-4,4 -4,-547 722.343,-547 722.343,4 -4,4"/>
<!-- _diagram_info -->
<g id="node1" class="node"><title>_diagram_info</title>
<text text-anchor="start" x="8" y="-454.1" font-family="Times,serif" font-size="13.00">Models diagram</text>
<text text-anchor="start" x="8" y="-440.1" font-family="Times,serif" font-size="13.00">Date: Nov 29 2017 &#45; 12:27</text>
<text text-anchor="start" x="8" y="-426.1" font-family="Times,serif" font-size="13.00">Migration version: 20171129152603</text>
<text text-anchor="start" x="8" y="-412.1" font-family="Times,serif" font-size="13.00">Generated by RailRoady 1.5.3</text>
<text text-anchor="start" x="8" y="-398.1" font-family="Times,serif" font-size="13.00">http://railroady.prestonlee.com</text>
</g>
<!-- Coment -->
<g id="node2" class="node"><title>Coment</title>
<path fill="none" stroke="black" d="M279,-0.5C279,-0.5 499,-0.5 499,-0.5 505,-0.5 511,-6.5 511,-12.5 511,-12.5 511,-109.5 511,-109.5 511,-115.5 505,-121.5 499,-121.5 499,-121.5 279,-121.5 279,-121.5 273,-121.5 267,-115.5 267,-109.5 267,-109.5 267,-12.5 267,-12.5 267,-6.5 273,-0.5 279,-0.5"/>
<text text-anchor="middle" x="389" y="-106.3" font-family="Times,serif" font-size="14.00">Coment</text>
<polyline fill="none" stroke="black" points="267,-98.5 511,-98.5 "/>
<text text-anchor="start" x="275" y="-83.3" font-family="Times,serif" font-size="14.00">id :integer</text>
<text text-anchor="start" x="275" y="-68.3" font-family="Times,serif" font-size="14.00">content :text</text>
<text text-anchor="start" x="275" y="-53.3" font-family="Times,serif" font-size="14.00">created_at :timestamp without time zone</text>
<text text-anchor="start" x="275" y="-38.3" font-family="Times,serif" font-size="14.00">updated_at :timestamp without time zone</text>
<text text-anchor="start" x="275" y="-23.3" font-family="Times,serif" font-size="14.00">post_id :integer</text>
<text text-anchor="start" x="275" y="-8.3" font-family="Times,serif" font-size="14.00">user_id :integer</text>
</g>
<!-- User -->
<g id="node3" class="node"><title>User</title>
<path fill="none" stroke="black" d="M244.5,-316.5C244.5,-316.5 533.5,-316.5 533.5,-316.5 539.5,-316.5 545.5,-322.5 545.5,-328.5 545.5,-328.5 545.5,-530.5 545.5,-530.5 545.5,-536.5 539.5,-542.5 533.5,-542.5 533.5,-542.5 244.5,-542.5 244.5,-542.5 238.5,-542.5 232.5,-536.5 232.5,-530.5 232.5,-530.5 232.5,-328.5 232.5,-328.5 232.5,-322.5 238.5,-316.5 244.5,-316.5"/>
<text text-anchor="middle" x="389" y="-527.3" font-family="Times,serif" font-size="14.00">User</text>
<polyline fill="none" stroke="black" points="232.5,-519.5 545.5,-519.5 "/>
<text text-anchor="start" x="240.5" y="-504.3" font-family="Times,serif" font-size="14.00">id :integer</text>
<text text-anchor="start" x="240.5" y="-489.3" font-family="Times,serif" font-size="14.00">email :character varying</text>
<text text-anchor="start" x="240.5" y="-474.3" font-family="Times,serif" font-size="14.00">encrypted_password :character varying</text>
<text text-anchor="start" x="240.5" y="-459.3" font-family="Times,serif" font-size="14.00">reset_password_token :character varying</text>
<text text-anchor="start" x="240.5" y="-444.3" font-family="Times,serif" font-size="14.00">reset_password_sent_at :timestamp without time zone</text>
<text text-anchor="start" x="240.5" y="-429.3" font-family="Times,serif" font-size="14.00">remember_created_at :timestamp without time zone</text>
<text text-anchor="start" x="240.5" y="-414.3" font-family="Times,serif" font-size="14.00">sign_in_count :integer</text>
<text text-anchor="start" x="240.5" y="-399.3" font-family="Times,serif" font-size="14.00">current_sign_in_at :timestamp without time zone</text>
<text text-anchor="start" x="240.5" y="-384.3" font-family="Times,serif" font-size="14.00">last_sign_in_at :timestamp without time zone</text>
<text text-anchor="start" x="240.5" y="-369.3" font-family="Times,serif" font-size="14.00">current_sign_in_ip :inet</text>
<text text-anchor="start" x="240.5" y="-354.3" font-family="Times,serif" font-size="14.00">last_sign_in_ip :inet</text>
<text text-anchor="start" x="240.5" y="-339.3" font-family="Times,serif" font-size="14.00">created_at :timestamp without time zone</text>
<text text-anchor="start" x="240.5" y="-324.3" font-family="Times,serif" font-size="14.00">updated_at :timestamp without time zone</text>
</g>
<!-- User&#45;&gt;Coment -->
<g id="edge2" class="edge"><title>User&#45;&gt;Coment</title>
<path fill="none" stroke="#a1d2e8" d="M339.577,-308.264C336.951,-298.811 334.699,-289.318 333,-280 323.276,-226.657 318.849,-210.343 333,-158 335.485,-148.807 339.094,-139.59 343.3,-130.701"/>
<ellipse fill="none" stroke="#a1d2e8" cx="340.757" cy="-312.348" rx="4.00001" ry="4.00001"/>
<polygon fill="#a1d2e8" stroke="#a1d2e8" points="343.396,-130.51 351.901,-123.587 345.637,-126.04 347.878,-121.57 347.878,-121.57 347.878,-121.57 345.637,-126.04 343.855,-119.553 343.396,-130.51 343.396,-130.51"/>
</g>
<!-- Post -->
<g id="node5" class="node"><title>Post</title>
<path fill="none" stroke="black" d="M354,-158.5C354,-158.5 574,-158.5 574,-158.5 580,-158.5 586,-164.5 586,-170.5 586,-170.5 586,-267.5 586,-267.5 586,-273.5 580,-279.5 574,-279.5 574,-279.5 354,-279.5 354,-279.5 348,-279.5 342,-273.5 342,-267.5 342,-267.5 342,-170.5 342,-170.5 342,-164.5 348,-158.5 354,-158.5"/>
<text text-anchor="middle" x="464" y="-264.3" font-family="Times,serif" font-size="14.00">Post</text>
<polyline fill="none" stroke="black" points="342,-256.5 586,-256.5 "/>
<text text-anchor="start" x="350" y="-241.3" font-family="Times,serif" font-size="14.00">id :integer</text>
<text text-anchor="start" x="350" y="-226.3" font-family="Times,serif" font-size="14.00">name :character varying</text>
<text text-anchor="start" x="350" y="-211.3" font-family="Times,serif" font-size="14.00">content :text</text>
<text text-anchor="start" x="350" y="-196.3" font-family="Times,serif" font-size="14.00">created_at :timestamp without time zone</text>
<text text-anchor="start" x="350" y="-181.3" font-family="Times,serif" font-size="14.00">updated_at :timestamp without time zone</text>
<text text-anchor="start" x="350" y="-166.3" font-family="Times,serif" font-size="14.00">user_id :integer</text>
</g>
<!-- User&#45;&gt;Post -->
<g id="edge1" class="edge"><title>User&#45;&gt;Post</title>
<path fill="none" stroke="#43474b" d="M432.113,-308.647C434.47,-302.093 436.797,-295.623 439.056,-289.345"/>
<ellipse fill="none" stroke="#43474b" cx="430.708" cy="-312.552" rx="4.00001" ry="4.00001"/>
<polygon fill="#43474b" stroke="#43474b" points="439.158,-289.06 446.777,-281.174 440.85,-284.356 442.543,-279.651 442.543,-279.651 442.543,-279.651 440.85,-284.356 438.309,-278.127 439.158,-289.06 439.158,-289.06"/>
</g>
<!-- ApplicationRecord -->
<g id="node4" class="node"><title>ApplicationRecord</title>
<ellipse fill="none" stroke="black" cx="641" cy="-429.5" rx="77.1866" ry="18"/>
<text text-anchor="middle" x="641" y="-425.8" font-family="Times,serif" font-size="14.00">ApplicationRecord</text>
</g>
<!-- Post&#45;&gt;Coment -->
<g id="edge3" class="edge"><title>Post&#45;&gt;Coment</title>
<path fill="none" stroke="#eb7a7d" d="M431.688,-150.79C428.491,-144.141 425.243,-137.384 422.038,-130.72"/>
<ellipse fill="none" stroke="#eb7a7d" cx="433.484" cy="-154.527" rx="4.00002" ry="4.00002"/>
<polygon fill="#eb7a7d" stroke="#eb7a7d" points="422.038,-130.72 421.761,-119.757 419.872,-126.214 417.705,-121.707 417.705,-121.707 417.705,-121.707 419.872,-126.214 413.65,-123.657 422.038,-130.72 422.038,-130.72"/>
</g>
</g>
</svg>
