<?xml version="1.0" encoding="UTF-8" standalone="no"?>
<!DOCTYPE svg PUBLIC "-//W3C//DTD SVG 1.1//EN"
 "http://www.w3.org/Graphics/SVG/1.1/DTD/svg11.dtd">
<!-- Generated by graphviz version 2.38.0 (20140413.2041)
 -->
<!-- Title: models_diagram Pages: 1 -->
<svg width="467pt" height="230pt"
 viewBox="0.00 0.00 467.34 230.00" xmlns="http://www.w3.org/2000/svg" xmlns:xlink="http://www.w3.org/1999/xlink">
<g id="graph0" class="graph" transform="scale(1 1) rotate(0) translate(4 226)">
<title>models_diagram</title>
<polygon fill="none" stroke="none" points="-4,4 -4,-226 463.343,-226 463.343,4 -4,4"/>
<!-- _diagram_info -->
<g id="node1" class="node"><title>_diagram_info</title>
<text text-anchor="start" x="8" y="-207.6" font-family="Times,serif" font-size="13.00">Models diagram</text>
<text text-anchor="start" x="8" y="-193.6" font-family="Times,serif" font-size="13.00">Date: Nov 29 2017 &#45; 12:27</text>
<text text-anchor="start" x="8" y="-179.6" font-family="Times,serif" font-size="13.00">Migration version: 20171129152603</text>
<text text-anchor="start" x="8" y="-165.6" font-family="Times,serif" font-size="13.00">Generated by RailRoady 1.5.3</text>
<text text-anchor="start" x="8" y="-151.6" font-family="Times,serif" font-size="13.00">http://railroady.prestonlee.com</text>
</g>
<!-- Coment -->
<g id="node2" class="node"><title>Coment</title>
<ellipse fill="none" stroke="black" cx="258" cy="-18" rx="38.9931" ry="18"/>
<text text-anchor="middle" x="258" y="-14.3" font-family="Times,serif" font-size="14.00">Coment</text>
</g>
<!-- User -->
<g id="node3" class="node"><title>User</title>
<ellipse fill="none" stroke="black" cx="259" cy="-183" rx="27.0966" ry="18"/>
<text text-anchor="middle" x="259" y="-179.3" font-family="Times,serif" font-size="14.00">User</text>
</g>
<!-- User&#45;&gt;Coment -->
<g id="edge2" class="edge"><title>User&#45;&gt;Coment</title>
<path fill="none" stroke="#fdbe96" d="M254.705,-156.894C251.426,-134.603 247.813,-101.142 250,-72 250.637,-63.5179 251.838,-54.3361 253.121,-46.0356"/>
<ellipse fill="none" stroke="#fdbe96" cx="255.323" cy="-160.904" rx="4.00001" ry="4.00001"/>
<polygon fill="#fdbe96" stroke="#fdbe96" points="253.13,-45.9796 259.192,-36.8417 253.941,-41.0458 254.752,-36.1119 254.752,-36.1119 254.752,-36.1119 253.941,-41.0458 250.311,-35.3822 253.13,-45.9796 253.13,-45.9796"/>
</g>
<!-- Post -->
<g id="node5" class="node"><title>Post</title>
<ellipse fill="none" stroke="black" cx="286" cy="-90" rx="27" ry="18"/>
<text text-anchor="middle" x="286" y="-86.3" font-family="Times,serif" font-size="14.00">Post</text>
</g>
<!-- User&#45;&gt;Post -->
<g id="edge1" class="edge"><title>User&#45;&gt;Post</title>
<path fill="none" stroke="#04aaac" d="M266.386,-157.107C270.024,-144.844 274.414,-130.048 278.118,-117.566"/>
<ellipse fill="none" stroke="#04aaac" cx="265.216" cy="-161.049" rx="4.00001" ry="4.00001"/>
<polygon fill="#04aaac" stroke="#04aaac" points="278.191,-117.319 285.35,-109.012 279.613,-112.526 281.036,-107.732 281.036,-107.732 281.036,-107.732 279.613,-112.526 276.721,-106.452 278.191,-117.319 278.191,-117.319"/>
</g>
<!-- ApplicationRecord -->
<g id="node4" class="node"><title>ApplicationRecord</title>
<ellipse fill="none" stroke="black" cx="382" cy="-183" rx="77.1866" ry="18"/>
<text text-anchor="middle" x="382" y="-179.3" font-family="Times,serif" font-size="14.00">ApplicationRecord</text>
</g>
<!-- Post&#45;&gt;Coment -->
<g id="edge3" class="edge"><title>Post&#45;&gt;Coment</title>
<path fill="none" stroke="#8894e3" d="M276.311,-64.7779C273.818,-58.544 271.122,-51.8046 268.585,-45.4634"/>
<ellipse fill="none" stroke="#8894e3" cx="277.879" cy="-68.6971" rx="4.00001" ry="4.00001"/>
<polygon fill="#8894e3" stroke="#8894e3" points="268.496,-45.241 268.961,-34.2849 266.639,-40.5986 264.782,-35.9562 264.782,-35.9562 264.782,-35.9562 266.639,-40.5986 260.604,-37.6275 268.496,-45.241 268.496,-45.241"/>
</g>
</g>
</svg>
